<?xml version="1.0" standalone="no"?>
<!DOCTYPE svg PUBLIC "-//W3C//DTD SVG 20010904//EN"
 "http://www.w3.org/TR/2001/REC-SVG-20010904/DTD/svg10.dtd">
<svg version="1.0" xmlns="http://www.w3.org/2000/svg"
 width="270.000000pt" height="270.000000pt" viewBox="0 0 270.000000 270.000000"
 preserveAspectRatio="xMidYMid meet">
<metadata>
Created by potrace 1.14, written by Peter Selinger 2001-2017
</metadata>
<g transform="translate(0.000000,270.000000) scale(0.100000,-0.100000)"
fill="#000000" stroke="none">
<path d="M354 2457 c-74 -28 -135 -116 -150 -214 -4 -28 -10 -41 -18 -36 -8 4
-8 3 0 -6 14 -15 6 -73 -10 -64 -7 4 -7 1 1 -8 10 -12 10 -18 1 -27 -9 -9 -9
-12 1 -12 7 0 9 -5 5 -11 -3 -6 -8 -47 -10 -92 -1 -45 -4 -84 -5 -87 -1 -3 0
-9 1 -15 7 -30 4 -51 -10 -63 -8 -8 -10 -11 -4 -8 15 8 24 -60 9 -75 -7 -9 -6
-10 3 -5 14 9 14 9 3 -32 -6 -20 -6 -30 0 -27 12 8 11 -2 -2 -27 -8 -15 -8
-19 0 -13 8 4 10 -10 7 -49 -3 -35 0 -56 6 -56 6 0 5 -7 -3 -16 -9 -11 -9 -18
-2 -22 8 -5 5 -21 -9 -52 -11 -25 -24 -47 -27 -50 -4 -3 -8 -16 -8 -29 -1 -13
-6 -27 -10 -30 -4 -3 -9 -15 -10 -26 -1 -11 -5 -38 -9 -60 -10 -50 -11 -228
-3 -235 4 -3 8 -18 10 -35 2 -16 8 -36 14 -44 8 -12 7 -13 -5 -6 -13 8 -13 6
-1 -8 7 -9 11 -24 7 -32 -3 -10 -2 -13 5 -10 9 6 24 -24 20 -40 -1 -3 6 -13
14 -22 9 -9 14 -24 12 -34 -3 -11 -1 -22 4 -25 5 -3 6 -10 3 -16 -4 -7 -2 -8
5 -4 7 5 9 13 4 20 -4 7 0 3 10 -8 10 -10 16 -25 13 -32 -3 -7 0 -16 6 -20 7
-5 8 -2 3 7 -8 12 -6 12 9 0 13 -11 14 -16 4 -22 -10 -6 -8 -9 6 -9 10 0 16
-5 13 -12 -2 -7 0 -22 5 -33 8 -18 8 -18 4 3 -2 12 -2 22 1 22 6 0 56 -59 66
-79 5 -9 -1 -5 -13 9 -12 14 -18 18 -14 10 16 -33 26 -41 39 -30 9 8 14 6 19
-5 3 -9 2 -14 -2 -11 -5 3 -9 -1 -9 -8 0 -8 7 -12 15 -8 11 4 13 1 7 -9 -6
-11 -5 -12 6 -1 11 10 19 7 42 -15 16 -16 43 -41 60 -58 17 -16 27 -23 22 -15
-7 11 -3 11 15 -3 14 -9 35 -23 48 -29 14 -7 22 -18 19 -28 -3 -10 2 -16 14
-16 14 0 15 3 7 13 -8 10 -7 12 6 7 9 -3 16 -10 16 -16 0 -5 6 -8 13 -7 17 3
47 -11 47 -23 0 -5 -4 -6 -10 -3 -5 3 -10 1 -10 -4 0 -14 17 -14 25 -1 3 5 11
10 17 10 6 0 6 -6 -2 -15 -7 -9 -10 -18 -6 -22 3 -3 6 -1 6 6 0 8 6 11 16 7 8
-3 13 -2 10 3 -4 5 3 7 15 4 14 -4 19 -11 16 -25 -4 -14 -2 -17 7 -9 17 14 58
10 52 -6 -3 -7 0 -15 6 -19 6 -4 8 -3 5 3 -4 6 0 13 8 17 8 3 17 1 20 -5 4 -5
12 -6 18 -2 7 4 6 -1 -2 -10 -8 -10 -11 -20 -7 -24 3 -3 6 -2 6 4 0 15 39 23
47 11 3 -6 2 -8 -4 -5 -5 3 -10 -1 -10 -9 0 -13 2 -13 15 0 10 10 22 12 36 7
11 -5 29 -7 39 -5 9 1 14 -2 11 -8 -4 -6 0 -14 7 -19 19 -12 29 -11 29 2 0 5
-4 7 -10 4 -5 -3 -10 -2 -10 4 0 5 9 9 20 8 11 -1 19 -6 16 -12 -2 -7 2 -12
10 -12 7 0 11 4 8 8 -2 4 6 6 18 3 13 -3 33 -6 46 -5 12 0 22 -4 22 -10 0 -5
-4 -8 -8 -5 -5 3 -9 -1 -9 -8 0 -7 6 -13 13 -13 7 0 11 3 9 7 -2 3 0 12 6 20
7 12 9 12 9 1 0 -11 3 -11 17 0 9 8 14 9 11 4 -4 -6 4 -15 17 -21 19 -9 22 -9
18 2 -3 8 -10 14 -16 14 -6 0 -7 3 -4 7 4 3 17 -2 29 -13 12 -10 18 -13 14 -6
-6 9 -1 12 16 10 12 -2 29 -7 37 -12 10 -6 12 -5 7 2 -5 9 3 10 29 6 25 -4 35
-2 31 5 -4 7 -1 8 8 5 9 -3 14 -10 11 -14 -3 -5 -1 -11 4 -14 5 -4 13 -1 17 5
5 8 3 9 -6 4 -8 -5 -11 -4 -7 2 9 14 47 24 47 12 0 -5 -4 -9 -10 -9 -5 0 -10
-5 -10 -12 0 -6 9 -3 21 8 12 10 29 19 38 19 9 0 22 4 29 9 12 7 12 4 1 -15
-11 -21 -10 -22 3 -12 8 7 19 9 23 5 5 -4 5 -2 2 4 -7 12 27 25 75 29 17 1 25
-3 21 -9 -4 -6 1 -4 11 4 11 8 29 13 42 12 13 -2 24 2 24 8 0 6 5 8 10 5 6 -4
7 -12 3 -18 -4 -7 0 -6 10 2 19 15 23 26 5 15 -7 -4 -8 -3 -4 5 6 9 11 9 22 0
8 -6 14 -8 14 -4 0 4 7 2 16 -5 12 -11 15 -11 12 0 -2 8 2 14 9 15 6 0 15 4
20 9 4 5 3 6 -4 2 -6 -3 -14 -2 -18 4 -3 5 1 10 9 10 8 0 19 -7 24 -16 8 -15
10 -15 15 0 5 12 3 15 -6 11 -6 -4 -4 0 7 9 13 11 25 12 42 6 13 -5 23 -6 23
-2 -3 20 2 33 11 27 6 -4 7 -11 4 -17 -4 -7 -2 -8 5 -4 6 4 8 12 5 18 -5 7 -1
9 9 5 12 -4 14 -2 10 11 -5 13 -3 14 6 6 14 -13 51 -7 51 8 0 5 -6 6 -12 2 -8
-4 -10 -3 -5 2 5 5 12 9 15 9 4 0 13 4 21 9 9 6 12 5 7 -2 -7 -12 20 -10 31 3
4 4 2 5 -4 1 -8 -4 -13 -1 -13 8 0 16 20 18 31 3 4 -5 9 3 13 17 3 14 12 26
20 26 7 0 21 9 31 20 12 13 22 17 29 11 7 -6 17 -6 26 1 12 8 11 9 -5 3 -18
-6 -18 -4 3 18 13 13 32 24 44 23 13 -1 22 6 24 18 1 10 8 24 15 30 9 8 10 7
4 -4 -8 -13 -6 -13 8 -1 9 7 15 17 12 21 -7 11 54 62 65 55 5 -3 11 -1 14 4 4
5 1 13 -5 17 -8 5 -9 3 -4 -6 5 -9 4 -11 -4 -6 -6 4 -9 12 -5 17 3 5 10 7 15
4 5 -4 9 -1 9 5 0 6 4 9 9 5 10 -6 24 11 27 33 1 6 -3 9 -9 6 -7 -3 -4 1 5 9
10 8 15 17 11 20 -3 4 -1 7 5 7 7 0 12 7 12 16 0 8 5 12 10 9 9 -6 15 16 11
39 -1 5 6 5 16 2 14 -6 15 -4 6 5 -13 13 -1 42 27 67 8 7 9 11 3 7 -7 -3 -13
-1 -13 4 0 6 5 11 11 11 6 0 8 7 5 16 -5 12 -2 15 10 10 13 -5 14 -3 7 6 -6 7
-9 22 -7 33 3 11 5 28 6 38 1 9 6 17 11 17 5 0 5 10 2 21 -6 16 -4 20 6 13 11
-6 12 -5 2 7 -10 12 -10 18 -1 27 9 9 9 12 -3 12 -12 0 -12 2 1 10 12 8 12 10
1 10 -11 0 -11 3 -1 15 10 12 10 15 -1 15 -11 0 -11 2 1 10 8 5 10 10 5 10 -6
0 -11 17 -12 38 -4 60 -11 97 -32 158 -11 31 -18 61 -14 67 3 6 1 7 -5 3 -11
-6 -16 6 -13 27 0 4 -2 7 -7 7 -24 0 -40 145 -19 178 5 6 4 12 0 12 -11 0 -10
71 0 88 5 7 3 12 -4 12 -8 0 -8 4 1 15 10 12 10 15 0 15 -9 0 -10 3 -1 13 8
10 7 17 -1 25 -7 7 -8 12 -2 12 5 0 10 9 10 20 0 11 -3 20 -7 20 -6 0 -4 65 4
105 3 11 0 25 -5 31 -5 7 -10 46 -11 88 -1 42 -5 76 -8 76 -4 0 -6 15 -6 33 0
17 -4 40 -8 50 -4 9 -4 25 -1 34 4 10 4 14 0 10 -4 -3 -17 16 -30 44 -42 89
-107 129 -206 125 -72 -3 -132 -26 -253 -97 -75 -44 -262 -181 -276 -202 -4
-6 -24 -7 -45 -4 -175 29 -222 33 -319 31 -121 -3 -202 -10 -255 -23 -89 -22
-88 -23 -120 9 -17 16 -33 30 -35 30 -5 0 -35 23 -59 45 -6 6 -33 26 -61 45
-27 18 -52 36 -55 39 -3 3 -21 14 -40 25 -184 99 -275 123 -356 93z m1866
-248 c12 -8 9 -9 -10 -5 -14 3 -20 3 -13 0 7 -3 11 -11 9 -17 -1 -7 -1 -9 1
-4 9 15 21 6 26 -20 3 -16 0 -31 -6 -35 -9 -6 -8 -8 2 -8 11 0 11 -3 0 -17 -8
-10 -9 -14 -2 -10 6 4 14 3 17 -2 4 -5 2 -12 -4 -16 -5 -3 -10 -12 -10 -18 0
-8 3 -7 9 2 6 10 9 2 9 -23 0 -24 -4 -34 -11 -29 -9 5 -9 3 -1 -8 14 -17 23
-109 10 -109 -4 0 -3 -7 4 -15 11 -13 10 -18 -6 -30 -13 -10 -14 -13 -3 -10
12 5 15 -2 14 -30 -1 -19 -4 -38 -7 -41 -3 -3 -2 -21 2 -40 4 -18 5 -34 1 -34
-3 0 -6 -33 -5 -73 1 -39 -4 -78 -10 -86 -8 -11 -8 -13 2 -7 6 4 12 3 12 -3 0
-5 -5 -13 -10 -16 -8 -5 -7 -11 1 -21 9 -11 9 -14 -1 -14 -10 0 -10 -3 0 -15
7 -8 10 -21 6 -30 -3 -8 0 -14 7 -12 7 1 11 -4 10 -10 -2 -7 1 -13 7 -13 5 0
21 -22 35 -50 24 -47 34 -80 16 -52 -7 11 -9 10 -14 -3 -4 -9 -3 -14 2 -11 15
9 30 -18 34 -60 1 -21 6 -45 10 -52 5 -7 3 -12 -4 -12 -10 0 -10 -3 -2 -11 13
-13 6 -77 -11 -98 -8 -11 -8 -13 1 -8 13 8 6 -30 -10 -50 -5 -7 -6 -13 -2 -13
4 0 2 -6 -4 -13 -6 -8 -8 -17 -4 -20 3 -4 1 -7 -5 -7 -7 0 -12 -6 -12 -14 0
-8 -7 -22 -16 -30 -8 -9 -12 -16 -7 -16 4 0 1 -6 -8 -13 -8 -7 -18 -20 -22
-30 -4 -10 -11 -15 -17 -12 -5 3 -7 0 -4 -8 8 -21 -118 -131 -219 -192 -77
-47 -213 -107 -268 -119 -13 -3 -42 -10 -64 -15 -197 -48 -452 -49 -650 -1
-137 32 -282 89 -267 105 4 5 1 5 -6 1 -16 -9 -134 63 -125 77 3 5 1 7 -5 3
-20 -12 -143 105 -197 189 -32 49 -51 93 -47 108 1 4 -3 7 -9 7 -5 0 -8 4 -4
9 3 5 1 13 -5 16 -8 5 -7 12 2 23 9 11 9 13 1 9 -12 -8 -18 16 -26 96 -2 28 1
37 13 37 9 0 11 3 5 8 -6 4 -10 13 -9 20 1 6 2 24 3 38 0 14 5 23 9 20 5 -3 8
5 7 17 -1 12 5 28 14 35 9 8 11 11 4 8 -8 -5 -8 0 0 19 7 14 16 25 20 25 5 0
5 5 2 10 -3 6 -2 10 3 10 5 0 10 8 11 18 6 41 5 235 -1 245 -4 6 -2 20 4 30 7
15 7 22 -3 28 -11 7 -11 9 1 9 12 0 12 2 1 9 -10 7 -11 13 -2 30 8 14 8 21 1
21 -7 0 -8 6 -1 18 6 11 6 24 1 32 -5 9 -5 19 2 27 7 9 7 13 -1 13 -9 0 -9 5
-1 20 7 12 7 20 1 20 -6 0 -7 22 -4 53 3 28 5 59 5 67 1 8 6 21 12 29 8 11 8
13 -1 7 -19 -11 -12 36 7 52 8 8 9 11 3 7 -7 -3 -13 0 -13 7 0 8 6 20 13 27
10 11 9 12 -2 6 -11 -6 -13 -4 -8 9 4 10 7 24 7 31 0 8 9 13 19 12 11 0 17 -5
15 -9 -3 -4 6 -4 20 2 19 7 27 6 34 -6 4 -8 19 -16 33 -19 13 -3 29 -12 35
-20 6 -8 17 -15 24 -15 7 0 10 -6 7 -14 -4 -10 0 -12 14 -9 11 3 21 -1 25 -11
3 -9 11 -13 17 -9 6 4 8 0 4 -11 -4 -10 -3 -15 4 -11 14 9 40 -15 32 -29 -4
-6 2 -4 12 4 11 9 16 10 11 3 -4 -8 -2 -13 4 -13 6 0 9 -4 6 -9 -3 -5 1 -12
10 -15 10 -4 13 -2 8 6 -5 7 -3 8 5 3 7 -4 10 -16 8 -27 -4 -16 -3 -17 9 -7
11 9 14 9 14 0 0 -7 5 -9 13 -5 7 5 6 0 -3 -11 -14 -17 -13 -17 9 -10 19 6 23
4 18 -8 -4 -11 -1 -15 13 -12 13 3 17 -1 13 -11 -3 -8 -2 -14 3 -13 21 4 35
-2 29 -11 -3 -5 1 -10 9 -10 9 0 16 -4 16 -8 0 -14 38 -11 51 4 8 10 15 11 24
4 10 -8 15 -8 21 1 5 8 3 10 -7 4 -8 -5 -10 -4 -6 0 4 5 13 10 20 11 7 1 17 3
22 4 22 5 36 -1 29 -12 -4 -7 -3 -8 5 -4 6 4 9 11 6 16 -3 5 -1 11 5 15 5 3
10 1 10 -5 0 -6 11 -9 25 -7 33 4 44 16 11 13 -14 -2 -23 1 -20 5 3 5 17 7 31
4 14 -2 35 1 46 6 12 7 17 7 13 1 -3 -5 1 -12 9 -15 9 -4 12 -1 8 9 -3 7 0 14
6 14 10 0 15 -14 12 -32 -2 -13 6 -9 20 9 10 11 10 14 2 9 -7 -4 -13 -2 -13 3
0 6 7 11 15 11 8 0 15 -4 15 -10 0 -5 5 -10 11 -10 6 0 9 6 6 13 -3 8 8 12 38
13 35 0 42 -3 38 -15 -5 -13 -3 -13 7 -4 7 6 19 9 28 6 11 -5 13 -2 7 6 -6 10
-3 11 12 2 11 -6 24 -7 28 -3 4 4 4 -4 0 -18 l-8 -25 23 25 c16 18 20 20 16 7
-4 -13 -2 -16 7 -10 20 12 58 11 64 -3 2 -7 12 -15 20 -18 14 -6 14 -4 2 10
-13 16 -12 16 9 5 12 -6 27 -9 32 -6 6 3 14 -5 20 -19 12 -32 23 -34 16 -3 -3
12 -3 16 0 9 3 -6 10 -10 14 -7 5 3 12 0 16 -6 5 -8 3 -9 -7 -4 -8 5 -11 4 -6
0 4 -5 18 -10 30 -12 18 -2 19 -1 7 8 -12 8 -11 9 6 4 14 -4 24 0 28 10 3 8
13 15 21 15 9 0 13 5 10 10 -4 6 -3 10 2 9 21 -4 33 2 33 16 0 8 5 15 11 15 5
0 7 -5 3 -12 -4 -7 -3 -8 4 -4 7 4 12 12 12 17 0 5 10 20 21 32 12 12 19 17
15 10 -7 -13 19 -12 31 2 4 4 2 5 -4 1 -8 -4 -13 -2 -13 7 0 9 9 13 25 12 14
-2 23 1 19 6 -3 5 -11 6 -17 3 -7 -4 -10 -5 -7 -1 3 3 9 5 13 6 5 0 15 8 24
18 8 10 11 12 7 4 -5 -9 -3 -12 4 -7 7 4 12 15 12 24 0 15 2 15 10 2 9 -13 10
-13 10 0 0 13 1 13 11 0 8 -12 9 -10 4 8 -5 18 -2 22 15 22 12 0 19 4 15 9 -3
5 0 13 6 17 8 4 9 3 5 -4 -10 -16 2 -15 19 2 8 7 11 17 7 21 -4 5 -2 5 5 2 6
-4 14 -1 17 5 3 7 3 2 0 -12 -6 -23 -6 -23 10 -7 10 9 22 14 28 11 7 -4 8 -2
4 5 -4 6 -13 8 -19 5 -7 -4 -2 4 10 16 19 21 24 22 39 9 16 -12 17 -12 12 3
-11 27 6 36 32 17z m240 -1533 c0 -3 -4 -8 -10 -11 -5 -3 -10 -1 -10 4 0 6 5
11 10 11 6 0 10 -2 10 -4z m-646 -414 c3 -5 -1 -9 -9 -9 -8 0 -12 4 -9 9 3 4
7 8 9 8 2 0 6 -4 9 -8z"/>
<path d="M451 2174 c0 -11 3 -14 6 -6 3 7 2 16 -1 19 -3 4 -6 -2 -5 -13z"/>
<path d="M511 2174 c0 -11 3 -14 6 -6 3 7 2 16 -1 19 -3 4 -6 -2 -5 -13z"/>
<path d="M2150 2179 c0 -5 5 -7 10 -4 6 3 10 8 10 11 0 2 -4 4 -10 4 -5 0 -10
-5 -10 -11z"/>
<path d="M568 2147 c7 -8 8 -18 4 -22 -4 -5 -1 -5 6 -1 17 10 15 23 -4 30 -13
5 -14 4 -6 -7z"/>
<path d="M1325 1940 c-2 -3 7 -6 21 -6 13 0 24 3 24 7 0 9 -40 8 -45 -1z"/>
<path d="M1400 1926 c0 -2 7 -7 16 -10 8 -3 12 -2 9 4 -6 10 -25 14 -25 6z"/>
<path d="M1516 1918 c3 -5 10 -6 15 -3 13 9 11 12 -6 12 -8 0 -12 -4 -9 -9z"/>
<path d="M1052 1901 c-11 -7 -11 -9 0 -14 9 -3 15 1 15 9 0 8 -1 14 -1 14 -1
0 -7 -4 -14 -9z"/>
<path d="M985 1881 c-3 -5 -2 -12 3 -15 5 -3 9 1 9 9 0 17 -3 19 -12 6z"/>
<path d="M2365 580 c-13 -14 -13 -17 -1 -17 8 0 14 5 13 11 -1 5 3 10 10 11
17 0 25 12 8 12 -8 0 -22 -8 -30 -17z"/>
<path d="M394 503 c2 -10 6 -17 10 -16 15 3 16 11 2 22 -12 10 -14 9 -12 -6z"/>
<path d="M2255 480 c-3 -5 -1 -10 4 -10 6 0 11 5 11 10 0 6 -2 10 -4 10 -3 0
-8 -4 -11 -10z"/>
<path d="M2191 436 c-8 -10 -9 -16 -1 -21 5 -3 10 -5 11 -3 4 18 7 38 4 38 -1
0 -8 -6 -14 -14z"/>
<path d="M526 407 c3 -10 9 -15 12 -12 3 3 0 11 -7 18 -10 9 -11 8 -5 -6z"/>
<path d="M2145 399 c-3 -4 2 -6 10 -5 21 3 28 13 10 13 -9 0 -18 -4 -20 -8z"/>
<path d="M550 380 c0 -5 5 -10 11 -10 5 0 7 5 4 10 -3 6 -8 10 -11 10 -2 0 -4
-4 -4 -10z"/>
<path d="M651 334 c0 -11 3 -14 6 -6 3 7 2 16 -1 19 -3 4 -6 -2 -5 -13z"/>
<path d="M1907 275 c3 -8 9 -12 14 -9 12 7 11 11 -5 17 -10 4 -13 1 -9 -8z"/>
<path d="M851 254 c0 -11 3 -14 6 -6 3 7 2 16 -1 19 -3 4 -6 -2 -5 -13z"/>
<path d="M976 218 c3 -5 10 -6 15 -3 13 9 11 12 -6 12 -8 0 -12 -4 -9 -9z"/>
<path d="M1602 211 c-11 -6 -10 -10 4 -15 20 -8 32 0 18 14 -5 5 -15 5 -22 1z"/>
<path d="M1680 200 c-9 -6 -10 -10 -3 -10 6 0 15 5 18 10 8 12 4 12 -15 0z"/>
<path d="M1496 188 c3 -5 10 -6 15 -3 13 9 11 12 -6 12 -8 0 -12 -4 -9 -9z"/>
<path d="M1355 180 c-3 -5 -1 -10 4 -10 6 0 11 5 11 10 0 6 -2 10 -4 10 -3 0
-8 -4 -11 -10z"/>
</g>
</svg>
